<?xml version="1.0" encoding="utf-8"?>
<!-- Generator: Adobe Illustrator 21.0.0, SVG Export Plug-In . SVG Version: 6.00 Build 0)  -->
<svg version="1.1" id="Layer_1" xmlns="http://www.w3.org/2000/svg" xmlns:xlink="http://www.w3.org/1999/xlink" x="0px" y="0px"
	 width="350px" height="302px" viewBox="0 0 350 302" style="enable-background:new 0 0 350 302;" xml:space="preserve">
<style type="text/css">
	.st0{fill:#ECE8EC;}
	.st1{fill:#F5D09F;}
	.st2{fill:#151E1C;}
	.st3{fill:#E9BB88;}
	.st4{fill:#D884F7;}
	.st5{fill:#FFFFFF;}
	.st6{fill:#464646;}
	.st7{fill:#44263D;}
	.st8{fill:#D66DF7;}
	.st9{fill:#9DF9E1;}
	.st10{fill:#CCD5E2;}
	.st11{fill:#BDDEF2;}
	.st12{fill:#F9D76B;}
	.st13{fill:#FC86B4;}
</style>
<g>
	<g>
		<path class="st0" d="M256.9,259.1c0,0,9.3,1.6,19.4,1.6c9.3,0,18.3-1.6,18.3-1.6l-0.7-1.6c-3.2-7.1-15.4-4.4-18.1-11.7l0,0
			c-2.3,7.3-14.9,4.5-18.1,11.7L256.9,259.1z"/>
	</g>
	<g>
		<rect x="273.4" y="203.8" class="st0" width="5" height="47.4"/>
	</g>
	<g>
		<polygon class="st1" points="274.8,247.3 272.6,242.4 267.8,244.3 269.2,249.2 		"/>
	</g>
	<g>
		<path class="st2" d="M274.8,247.2l1.2,3.9l-5.1,1.6c0,0-11.6,4.9-13.7,2.6c-1-1,2.8-2.1,5.2-3.7c2.4-1.6,6.2-3.8,6.2-3.8
			S271.9,248,274.8,247.2z"/>
	</g>
	<g>
		<polygon class="st1" points="249.3,254.4 248.5,249.1 243.4,249.5 243.3,254.6 		"/>
	</g>
	<g>
		<path class="st2" d="M249.3,254.3v4.1l-5.3,0.1c0,0-12.4,1.4-13.9-1.4c-0.6-1.3,3.3-1.2,6-2c2.8-0.9,7-1.9,7-1.9
			S246.3,254.2,249.3,254.3z"/>
	</g>
	<g>
		<path class="st3" d="M202.8,163.9l7.1-2.4l6.3,1.6c3.5-1,4.7-0.9,12-2.7c6.1-1.6,13.2-4.7,13.2-4.7l5.2-8.7c3.4,0.3,10.4,4,10.4,4
			s-9.7,13.2-12.4,14.1c-2.8,1-21.4,3.2-28.5,2.4c-2.2-0.2-6.6-2.6-6.6-2.6l-5.6,1l-4.4,3l-0.8-0.6l1.8-1.9L202.8,163.9z"/>
	</g>
	<g>
		<path class="st4" d="M252,130.3c0,0,9,1.5,8.9,9.7c-0.1,5.3-7.3,15.2-7.3,15.2s-4-5.5-8.9-7c0,0,3.2-9.3,4.1-12.3
			C250,132.1,252,130.3,252,130.3z"/>
	</g>
	<g>
		<rect x="267" y="202.4" class="st0" width="17.9" height="9.7"/>
	</g>
	<g>
		<path class="st0" d="M269.3,164.9c-0.9-11.6-1.5-23.4-1.9-35.1c11.1-4.9,35.8-2.7,38.1,4.6c2.5,7.7-6.9,29.9-6.9,38.1
			c0,8.3,3.2,14.3,3.7,17.9c0.5,3.7-1.8,6.5-1.8,6.5h-28.3C271.5,186.2,270.2,175.6,269.3,164.9z"/>
	</g>
	<g>
		<path class="st5" d="M269.3,164.9c-1-12.2-1.6-24.3-1.9-36.5c12.2-2.9,31.5-0.4,33.6,6.1c2.5,7.7-6.9,29.9-6.9,38.1
			c0,8.3,3.2,14.3,3.7,17.9c0.5,3.7-1.8,6.5-1.8,6.5h-23.8C271.5,186.2,270.2,175.6,269.3,164.9z"/>
	</g>
	<g>
		<path class="st5" d="M247.2,205.7h47c3.5,0,6.4-2.9,6.4-6.4v-2.4h-53.3L247.2,205.7L247.2,205.7z"/>
	</g>
	<g>
		<path class="st6" d="M257.3,176.9c0,0-25.5,15.2-27,21.4c-1.8,7.5,10.4,51.7,10.4,51.7c2.9,1.9,8.2,1.3,10.2-0.5
			c0,0-9.8-37.8-8.8-40.4c2.6-6.2,25-13.6,32-20.3c7-6.8,7.7-13.2,7.7-13.2L257.3,176.9z"/>
	</g>
	<g>
		<path class="st6" d="M286.5,170.1c0,0,8.7,18.1,0.9,25.4c-3.6,3.4-25,0.3-26.2,3.7l12.9,42.9c0,0-2.3,1.4-6.9,3.7
			c0,0-26.9-47.4-24.1-53.5c2.8-6.1,21.3-9.7,22.3-13c1-3.4,1.5-8.9,1.5-8.9L286.5,170.1z"/>
	</g>
	<g>
		<path class="st1" d="M249.6,121c0.6,2.1,1.5,4.4,3.6,5.1c1.9,0.6,3.9-0.4,5.7-1.4c2-1.2,4.1-2.6,5.3-4.5c2-3,3.5-6.6,3.4-10.2
			c-0.1-1.3-1.9-2.8-2.7-3.8c-0.6-0.7-1.4-1.2-2.2-1.5c-1.9-0.9-4-1.5-6.1-1.9c-3.5-0.6-7.3,0.2-8.1,4.1
			C247.8,111.3,248.4,116.5,249.6,121z"/>
	</g>
	<g>
		<circle class="st7" cx="255.7" cy="112.8" r="1"/>
	</g>
	<g>
		<circle class="st7" cx="250.3" cy="112.8" r="1"/>
	</g>
	<g>
		<g>
			<path class="st7" d="M256.5,116.3c-1.8,0-3.4-1.5-3.4-3.4c0-1.8,1.5-3.4,3.4-3.4s3.4,1.5,3.4,3.4
				C259.9,114.8,258.3,116.3,256.5,116.3z M256.5,110.3c-1.5,0-2.7,1.2-2.7,2.7s1.2,2.7,2.7,2.7s2.7-1.2,2.7-2.7
				S258,110.3,256.5,110.3z"/>
		</g>
		<g>
			<path class="st7" d="M251.6,111.2l-0.5-0.4c0.4-0.6,1-0.9,1.7-0.9c0.7-0.1,1.5,0.2,2,0.8l-0.5,0.4c-0.4-0.4-1-0.6-1.5-0.6
				C252.3,110.6,251.8,110.8,251.6,111.2z"/>
		</g>
		<g>
			<path class="st7" d="M249.2,116.3c-1.8,0-3.4-1.5-3.4-3.4c0-1.8,1.5-3.4,3.4-3.4s3.4,1.5,3.4,3.4
				C252.5,114.8,251,116.3,249.2,116.3z M249.2,110.3c-1.5,0-2.7,1.2-2.7,2.7s1.2,2.7,2.7,2.7s2.7-1.2,2.7-2.7
				S250.7,110.3,249.2,110.3z"/>
		</g>
	</g>
	<g>
		<path class="st1" d="M274.2,126.7c0,0,0-0.7-2.5-1.3c-0.7-0.2-1.6-0.2-2.2-0.6c-2-1.8-3.8-4.9-4.5-7.3c-0.1-0.3-0.2-0.7-0.1-1.1
			c-1.7,1.4-3.3,2.9-4.8,4.4c-0.6,0.6-3.7,0.2-3.4,1c0.1,0.2,1,2.1,1.8,3.8c-1.5,1-3.3,2.3-3.3,2.3l-2.2,12l6.3,3.5
			c0,0,7-1.5,11.6-4C275.7,136.9,274.2,126.7,274.2,126.7z"/>
	</g>
	<g>
		<path class="st8" d="M271.7,125.4c0,0-1.8,3.4-6.5,5.3c-4.6,2-8.7-4-8.7-4l-4.6,3.6c0,0-0.4,16.3,1.6,25.2
			c2,8.9,3.8,21.4,3.8,21.4s2.1,3,4.7,3.2c3.2,0.2,7.7-2.3,14.6-1c7.7,1.4,13.6,0.2,13.6,0.2s-6-29.1-7.3-34.9s-4.9-17.8-4.9-17.8
			S274.8,125.7,271.7,125.4z"/>
	</g>
	<g>
		<g>
			<path class="st0" d="M190.9,168.8h26.5v-2.3h-28.7v0.2C188.7,167.8,189.7,168.8,190.9,168.8z"/>
		</g>
		<g>
			<path class="st0" d="M199.1,140.1c0.8,0,1.5,0.5,1.8,1.3l9.1,25.1l-0.6,0.2l0.2,0.5l-20.8-0.7l-8.9-23.8
				c-0.5-1.3,0.5-2.6,1.8-2.6L199.1,140.1z"/>
		</g>
		<g>
			<path class="st5" d="M191.9,155c0.6,2.4,1.8,4.2,2.7,4.2s1.1-2,0.5-4.4c-0.6-2.4-1.8-4.2-2.7-4.2
				C191.5,150.6,191.3,152.6,191.9,155z"/>
		</g>
	</g>
	<g>
		<g>
			<path class="st7" d="M252.8,110.8c0,1.8-0.7,3.2-1.4,4.8c-0.3,0.7-0.6,1.7-0.3,2.5c0.1,0.1,0.2,0.2,0.2,0.2
				c0.7,0,1.5-0.5,2.2-0.8c0.2-0.1,0.1-0.6-0.2-0.5c-0.3,0.1-0.6,0.2-1,0.3c-0.6,0.2-0.8,0.3-0.8-0.4c0-0.9,0.7-1.8,1-2.6
				c0.5-1.1,0.6-2.3,0.6-3.5C253.1,110.6,252.8,110.6,252.8,110.8L252.8,110.8z"/>
		</g>
	</g>
	<g>
		<g>
			<path class="st7" d="M255.2,109.1c0.4,0.2,0.8,0.1,1.2,0.2c0.4,0,0.8,0.1,1.2,0.2c0.6,0.1,0.6-0.9,0.2-1
				c-0.8-0.2-1.8-0.3-2.6-0.2C254.8,108.4,254.8,109,255.2,109.1L255.2,109.1z"/>
		</g>
	</g>
	<g>
		<g>
			<path class="st7" d="M249.1,109.1c0.6,0.1,1.3,0,2,0c0.6,0.1,0.6-0.9,0-1c-0.7-0.1-1.5-0.1-2.1,0.4
				C248.8,108.7,248.8,109.1,249.1,109.1L249.1,109.1z"/>
		</g>
	</g>
	<g>
		<g>
			<path class="st7" d="M259.5,112.3c0.6-0.1,1.3-0.3,1.9-0.5c0.6-0.2,1.3-0.3,1.8-0.6c0.2-0.1,0.1-0.4-0.1-0.4
				c-0.6,0-1.3,0.2-1.9,0.5c-0.6,0.2-1.3,0.4-1.8,0.7C259.3,112.1,259.4,112.4,259.5,112.3L259.5,112.3z"/>
		</g>
	</g>
	<g>
		<g>
			<path class="st6" d="M254.7,107.6c-3-0.2-6.1-0.2-8.7-1.6c-1.3-0.6-2.4-1.7-2.6-3c-0.2-1.4,0.7-2.9,2.2-3c0.3,0,0.6,0,0.9-0.2
				c0.3-0.2,0.4-0.6,0.4-1c0.3-2.4,2.3-4.8,4.9-4.7c2.1,0.1,4.1,1.7,6.1,1.2c0.6-0.2,1.2-0.5,1.8-0.8c1.8-0.8,3.7-1.1,5.7-0.8
				c2,0.3,4.1,1.9,3.7,3.7c-0.2,0.6-0.6,1.1-0.7,1.8c-0.4,2.2,3.1,3.4,3.8,5.5c0.6,2-1.3,3.9-1.2,6c0.1,1.1,0.7,2.5-0.2,3.3
				c-0.5,0.4-1.3,0.6-1.6,1.1c-0.4,0.7,0.4,1.6,0.4,2.4c0.1,1-1.1,1.9-2.2,1.8c-1.1-0.1-2-0.9-2.5-1.8c-0.4-1-0.5-2-0.4-3
				c1.9-0.6,3-3.6,1.3-4.4c-1-0.4-1.9,0.6-2.3,1.4C261.6,108.7,258.6,107.6,254.7,107.6z"/>
		</g>
		<g>
			<path class="st6" d="M262.4,112.3c-0.6,1.4-1.3,2.9-1.8,4.3c-0.2,0.6-0.5,1.2-1,1.6c-0.7,0.6-1.8,0.6-2.7,0.5
				c-1-0.2-2.7-0.7-3.7-0.6c-2.2,0.2-3.7,1.2-3.9,1.5c-0.2,0.6,0.1,1.4,0.2,1.9c0,0.6-0.1,1.3-0.4,1.8c-0.2,0.4-0.6,0.6-0.8,1
				c-0.8,0.8-1.4,1.8-1.4,3c0.1,1.5,1.5,2.6,2.8,3.4c0.8,0.6,1.7,1.1,2.6,1.3c0.6,0.1,1.3,0.1,2,0c1.4-0.2,2.7-0.2,4.1-0.6
				c1.3-0.4,2.6-1.1,3.4-2.2c0.7-1,1-2.1,1.4-3.2c0.6-1.8,1-3.7,1.1-5.6c0.1-1.8-0.3-3.5-0.5-5.3c-0.2-1.5-0.2-3.1-0.1-4.6
				c0-0.2,0-0.6-0.2-0.7c-0.3-0.1-0.2,0.4-0.2,0.6C262.9,111,262.7,111.6,262.4,112.3z"/>
		</g>
		<g>
			<path class="st6" d="M251,120.5c-0.3,0.6-0.2,1.4,0.4,1.9c0.2,0.2,0.6,0.4,0.9,0.3c0.3,0,0.6-0.3,0.6-0.6c0-0.1-0.1-0.2,0-0.3
				c0.1-0.1,0.2-0.1,0.3-0.1c0.4,0,1,0,1.1,0.4c0.1,0.1,0.1,0.2,0.2,0.3c0.2,0.2,0.6,0.3,0.8,0.2c0.5,0,0.9-0.2,1.3-0.3
				c0.2-0.1,0.4-0.2,0.6-0.3c0.2-0.2,0.2-0.4,0.2-0.6c-0.1-0.2-0.2-0.3-0.4-0.4C255.5,120.1,252,118.2,251,120.5z"/>
		</g>
		<g>
			<g>
				<path class="st6" d="M251.6,120.5c0.7,0.4,2.2,0.5,2.8-0.1c0.2-0.2,0.2-0.4-0.1-0.4c-0.5,0-0.9,0.2-1.3,0.2
					c-0.5,0-0.9-0.1-1.4-0.1C251.6,120.2,251.5,120.4,251.6,120.5L251.6,120.5z"/>
			</g>
		</g>
	</g>
	<g>
		<path class="st5" d="M270.3,199.5c0,0-0.9-24.7,4.6-26.3s17.6-1.2,17.6-1.2l1.1,4.5c0,0-15.9-1.2-18.1,1.8s0,21.5,0,21.5
			L270.3,199.5z"/>
	</g>
	<g>
		<path class="st1" d="M225.9,163.2l7.1-2.4l6.3,1.6c3.5-1,4.7-0.9,12-2.7c6.1-1.6,13.2-4.7,13.2-4.7l8-11.9
			c3.4,0.3,7.7,7.2,7.7,7.2s-9.7,13.2-12.4,14.1c-2.8,1-23.8,3.4-30.9,2.6c-2.2-0.2-6.1-2.7-6.1-2.7l-3.6,0.9l-4.4,3l-0.8-0.6
			l1.8-1.9L225.9,163.2z"/>
	</g>
	<g>
		<path class="st4" d="M277.9,126.5c0,0,9.5,1.5,9.3,9.7c-0.1,5.3-7.3,15.2-7.3,15.2s-4-5.5-8.9-7c0,0,3.8-7.5,4.1-10.6
			C275.4,130.6,277.9,126.5,277.9,126.5z"/>
	</g>
	<g>
		<g>
			<path class="st5" d="M212.2,168.8h26.5v-2.3h-28.7v0.2C209.9,167.8,210.9,168.8,212.2,168.8z"/>
		</g>
		<g>
			<rect x="226.4" y="167.2" class="st0" width="9.6" height="0.7"/>
		</g>
		<g>
			<rect x="223.5" y="167.2" class="st0" width="1.4" height="0.7"/>
		</g>
	</g>
	<g>
		<g>
			<polygon class="st9" points="268.7,262 270.5,262 250.6,175.7 246.9,175.7 			"/>
		</g>
		<g>
			<polygon class="st9" points="214.9,261.1 216.7,261.1 229.5,175.7 225.7,175.7 			"/>
		</g>
		<g>
			<polygon class="st9" points="138.8,260.7 140.6,260.7 157.4,175.7 153.7,175.7 			"/>
		</g>
		<g>
			<rect x="168.1" y="171.8" class="st9" width="93.1" height="3.8"/>
		</g>
		<g>
			<rect x="138.3" y="171.8" class="st9" width="85.8" height="3.8"/>
		</g>
		<g>
			<rect x="170.2" y="168.6" class="st9" width="99.5" height="5.2"/>
		</g>
		<g>
			<rect x="125.3" y="168.6" class="st9" width="92.3" height="5.2"/>
		</g>
	</g>
</g>
<g>
	<g>
		<path class="st10" d="M151.8,274.6H69.9c-12.7,0-23-10.3-23-23v-205c0-12.7,10.3-23,23-23h81.9c12.7,0,23,10.3,23,23v204.9
			C174.8,264.3,164.6,274.6,151.8,274.6z"/>
		<path class="st5" d="M152.8,265.7H68.9c-8.9,0-16.1-7.2-16.1-16.1V47.3c0-8.9,7.2-16.1,16.1-16.1h83.9c8.9,0,16.1,7.2,16.1,16.1
			v202.3C168.9,258.5,161.8,265.7,152.8,265.7z"/>
	</g>
	<path class="st10" d="M145.6,31.1h-7.5c-2.3,0-4.2,1.9-4.2,4.2v2.9c0,2.3-1.9,4.2-4.2,4.2H96.1c-2.3,0-4.2-1.9-4.2-4.2v-3
		c0-2.3-1.9-4.2-4.2-4.2H66.2v-2.2h79.5v2.3H145.6z"/>
</g>
<path class="st11" d="M144.9,250.5H76.7c-1.6,0-2.8-1.3-2.8-2.8v-8.1c0-1.6,1.3-2.8,2.8-2.8h68.2c1.6,0,2.8,1.3,2.8,2.8v8.1
	C147.7,249.3,146.5,250.5,144.9,250.5z"/>
<g>
	<path class="st12" d="M66.2,101.5c0,0,6.8-5.3,6.8-13c0-4.4,0.1-10.7,0.2-15.2c0.1-3.3,2.8-5.9,5.9-5.9h69.9c3.3,0,5.9,2.7,5.9,5.9
		v22.1c0,3.3-2.7,6-6,5.9L81.2,101c-2.6,0-5.2-1.1-7.1-3l0,0C74.3,98.3,72.1,101.4,66.2,101.5z"/>
	<g>
		<circle class="st5" cx="92.4" cy="84.5" r="9.5"/>
		<g>
			<path class="st5" d="M145.6,77.7h-35.8c-0.8,0-1.6-0.7-1.6-1.6l0,0c0-0.8,0.7-1.6,1.6-1.6h35.8c0.8,0,1.6,0.7,1.6,1.6l0,0
				C147.2,77,146.5,77.7,145.6,77.7z"/>
			<path class="st5" d="M145.6,83.4h-35.8c-0.8,0-1.6-0.7-1.6-1.6l0,0c0-0.8,0.7-1.6,1.6-1.6h35.8c0.8,0,1.6,0.7,1.6,1.6l0,0
				C147.2,82.7,146.5,83.4,145.6,83.4z"/>
			<path class="st5" d="M145.6,89.1h-35.8c-0.8,0-1.6-0.7-1.6-1.6l0,0c0-0.8,0.7-1.6,1.6-1.6h35.8c0.8,0,1.6,0.7,1.6,1.6l0,0
				C147.2,88.4,146.5,89.1,145.6,89.1z"/>
			<path class="st5" d="M127.4,94.7h-17.7c-0.8,0-1.6-0.7-1.6-1.6l0,0c0-0.8,0.7-1.6,1.6-1.6h17.7c0.8,0,1.6,0.7,1.6,1.6l0,0
				C128.9,94.1,128.3,94.7,127.4,94.7z"/>
		</g>
	</g>
</g>
<g>
	<path class="st12" d="M66.2,194.7c0,0,6.8-5.3,6.8-13c0-4.4,0.1-10.7,0.2-15.2c0.1-3.3,2.8-5.9,5.9-5.9h69.9c3.3,0,5.9,2.7,5.9,5.9
		v22.1c0,3.3-2.7,6-6,5.9l-67.8-0.4c-2.6,0-5.2-1.1-7.1-3l0,0C74.3,191.4,72.1,194.5,66.2,194.7z"/>
	<g>
		<circle class="st5" cx="92.4" cy="177.7" r="9.5"/>
		<g>
			<path class="st5" d="M145.6,170.9h-35.8c-0.8,0-1.6-0.7-1.6-1.6l0,0c0-0.8,0.7-1.6,1.6-1.6h35.8c0.8,0,1.6,0.7,1.6,1.6l0,0
				C147.2,170.2,146.5,170.9,145.6,170.9z"/>
			<path class="st5" d="M145.6,176.6h-35.8c-0.8,0-1.6-0.7-1.6-1.6l0,0c0-0.8,0.7-1.6,1.6-1.6h35.8c0.8,0,1.6,0.7,1.6,1.6l0,0
				C147.2,175.9,146.5,176.6,145.6,176.6z"/>
			<path class="st5" d="M145.6,182.2h-35.8c-0.8,0-1.6-0.7-1.6-1.6l0,0c0-0.8,0.7-1.6,1.6-1.6h35.8c0.8,0,1.6,0.7,1.6,1.6l0,0
				C147.2,181.5,146.5,182.2,145.6,182.2z"/>
			<path class="st5" d="M127.4,187.9h-17.7c-0.8,0-1.6-0.7-1.6-1.6l0,0c0-0.8,0.7-1.6,1.6-1.6h17.7c0.8,0,1.6,0.7,1.6,1.6l0,0
				C128.9,187.3,128.3,187.9,127.4,187.9z"/>
		</g>
	</g>
</g>
<g>
	<path class="st13" d="M147.1,146.5L147.1,146.5c-1.9,1.9-4.5,3-7.1,3l-67.8,0.4c-3.3,0.1-6-2.6-6-5.9v-22.1c0-3.3,2.6-5.9,5.9-5.9
		h69.9c3.2,0,5.9,2.6,5.9,5.9c0.1,4.5,0.2,10.8,0.2,15.2c0,7.7,6.8,13,6.8,13C149.2,149.9,147,146.8,147.1,146.5z"/>
	<g>
		<circle class="st5" cx="128.8" cy="133" r="9.5"/>
		<g>
			<path class="st5" d="M74.1,124.6L74.1,124.6c0-0.8,0.7-1.6,1.6-1.6h35.8c0.8,0,1.6,0.7,1.6,1.6l0,0c0,0.8-0.7,1.6-1.6,1.6H75.6
				C74.8,126.2,74.1,125.5,74.1,124.6z"/>
			<path class="st5" d="M74.1,130.4L74.1,130.4c0-0.8,0.7-1.6,1.6-1.6h35.8c0.8,0,1.6,0.7,1.6,1.6l0,0c0,0.8-0.7,1.6-1.6,1.6H75.6
				C74.8,131.9,74.1,131.2,74.1,130.4z"/>
			<path class="st5" d="M74.1,136L74.1,136c0-0.8,0.7-1.6,1.6-1.6h35.8c0.8,0,1.6,0.7,1.6,1.6l0,0c0,0.8-0.7,1.6-1.6,1.6H75.6
				C74.8,137.6,74.1,136.9,74.1,136z"/>
			<path class="st5" d="M92.2,141.7L92.2,141.7c0-0.8,0.7-1.6,1.6-1.6h17.7c0.8,0,1.6,0.7,1.6,1.6l0,0c0,0.8-0.7,1.6-1.6,1.6H93.8
				C92.9,143.2,92.3,142.6,92.2,141.7z"/>
		</g>
	</g>
</g>
</svg>
