<svg xmlns="http://www.w3.org/2000/svg" width="200" height="200" viewBox="8 10 200 200">
  <defs>
    <style>
      .cls-1{
        fill: #01579b;
      }
      .cls-2 {
        fill: gray;
      }

      .cls-3 {
        fill: #e91e63;
      }

      .cls-4 {
        fill: #ffeb3b;
      }

      .cls-2 {
        fill-rule: evenodd;
      }
    </style>
  </defs>
  <circle class="cls-1" cx="70.5" cy="45.5" r="8.5"/>
  <circle id="Ellipse_1_copy" data-name="Ellipse 1 copy" class="cls-4" cx="64" cy="85" r="8.5"/>
  <circle id="Ellipse_1_copy_2" data-name="Ellipse 1 copy 2" class="cls-1" cx="26" cy="112.5" r="8.5"/>
  <circle id="Ellipse_1_copy_3" data-name="Ellipse 1 copy 3" class="cls-3" cx="51" cy="171.5" r="8.5"/>
  <circle id="Ellipse_1_copy_4" data-name="Ellipse 1 copy 4" class="cls-4" cx="109" cy="155" r="8.5"/>
  <circle id="Ellipse_1_copy_5" data-name="Ellipse 1 copy 5" class="cls-1" cx="150.5" cy="178" r="8.5"/>
  <circle id="Ellipse_1_copy_6" data-name="Ellipse 1 copy 6" class="cls-3" cx="156" cy="137.5" r="8.5"/>
  <circle id="Ellipse_1_copy_7" data-name="Ellipse 1 copy 7" class="cls-4" cx="189" cy="113" r="8.5"/>
  <circle id="Ellipse_1_copy_8" data-name="Ellipse 1 copy 8" class="cls-1" cx="171" cy="58" r="8.5"/>
  <circle id="Ellipse_1_copy_9" data-name="Ellipse 1 copy 9" class="cls-3" cx="111.0" cy="63.5" r="8.5"/>
  <path class="cls-2" d="M57.333,165.373l-0.667-.746,38-34,0.667,0.746Z"/>
  <path class="cls-2" d="M87.009,114.5l-0.019,1-53-1,0.019-1Z"/>
  <path class="cls-2" d="M71.0,90.254l0.907-.107,16,11-0.907.908Z"/>
  <path class="cls-2" d="M98.429,92.743l-0.857.514-24-40,0.857-.514Z"/>
  
  <path class="cls-2" d="M163.667,62.627l0.666,0.746-37,33-0.666-.746Z"/>
  <path class="cls-2" d="M181,113.5l0.018,1-47,1-0-1Z"/>
  <path class="cls-2" d="M150.245,132.564l-0.49.872-16-9,0.49-.872Z"/>
  <path class="cls-2" d="M147.416,170.723l-0.832.554-24-36,0.832-.554Z"/>
  
  <path class="cls-2" d="M110,147h-1V136h1v11Z"/>
  <path class="cls-2" d="M110,72.0743l1-1,0.1,21-1,0.3Z"/>

  <path class="cls-2" d="M97,106l11,5v14l-11-5Z"/>
  <path class="cls-2" d="M112,111l11-5v14l-11,5Z"/>
  <path class="cls-2" d="M110,108l12-5-13-4l-11,4Z"/>
</svg>
