<?xml version="1.0" encoding="utf-8"?>
<!-- Generator: Adobe Illustrator 17.0.0, SVG Export Plug-In . SVG Version: 6.00 Build 0)  -->
<!DOCTYPE svg PUBLIC "-//W3C//DTD SVG 1.1//EN" "http://www.w3.org/Graphics/SVG/1.1/DTD/svg11.dtd">
<svg version="1.1" id="Layer_1" xmlns="http://www.w3.org/2000/svg" xmlns:xlink="http://www.w3.org/1999/xlink" x="0px" y="0px"
	 width="764.331px" height="621.994px" viewBox="0 0 764.331 621.994" enable-background="new 0 0 764.331 621.994"
	 xml:space="preserve">
<g>
	<g>
		<g>
			<path fill="#54C4C8" d="M653.904,303.7l-0.08,0.004c9.693-10.134,5.136-21.33,3.379-24.737c-0.004-0.006-0.006-0.011-0.01-0.017
				c-0.339-0.657-0.583-1.049-0.583-1.049l0.088,0.017c-2.81-5.543-4.426-11.793-4.426-18.433c0-11.284,4.57-21.499,11.958-28.893
				c6.789-8.993,1.651-20.95,1.651-20.95h0.016c-1.061-3.008-1.667-6.23-1.667-9.602c0-15.957,12.925-28.893,28.871-28.893
				c15.946,0,28.871,12.936,28.871,28.893c0,3.371-0.606,6.593-1.667,9.602h0.016c0,0-5.138,11.957,1.651,20.95
				c7.388,7.394,11.958,17.61,11.958,28.893c0,6.636-1.614,12.881-4.42,18.422l0.029-0.005c0,0-0.051,0.081-0.127,0.208
				c-0.23,0.451-0.46,0.902-0.708,1.343c-1.813,3.751-5.308,13.762,2.681,23.146c0.246,0.29,0.497,0.573,0.737,0.868
				c0.074,0.079,0.127,0.159,0.203,0.238l-0.025-0.001c6.906,8.615,11.061,19.535,11.061,31.439
				c0,27.78-22.503,50.299-50.261,50.299c-27.758,0-50.26-22.52-50.26-50.299C642.841,323.236,646.996,312.314,653.904,303.7z"/>
			<path fill="#0B9DB0" d="M678.326,325.41l12.311,12.189v-42.831l-15.119-14.967c-0.784-0.777-0.791-2.041-0.016-2.826
				c0.776-0.786,2.04-0.79,2.823-0.016l12.311,12.188v-59.08c0-1.104,0.893-1.998,1.997-1.998s1.997,0.894,1.997,1.998v35.604
				l11.972-11.913c0.78-0.777,2.043-0.777,2.823,0.008c0.776,0.783,0.776,2.047-0.008,2.826l-14.787,14.714v43.016l13.232-13.376
				c0.772-0.786,2.035-0.79,2.823-0.016c0.784,0.777,0.792,2.041,0.016,2.826l-16.07,16.247v114.113
				c0,1.104-0.893,1.998-1.997,1.998s-1.997-0.894-1.997-1.998V343.22l-15.119-14.969c-0.784-0.776-0.791-2.041-0.016-2.826
				C676.278,324.639,677.542,324.635,678.326,325.41z"/>
		</g>
	</g>
	<path fill="#CADFEE" d="M714.514,438.449h-63.813c-1.045,0-1.892-0.848-1.892-1.894s0.847-1.894,1.892-1.894h63.813
		c1.045,0,1.892,0.848,1.892,1.894S715.559,438.449,714.514,438.449z"/>
	<path fill="#CADFEE" d="M749.227,536.404H284.986c-1.012,0-1.833-0.821-1.833-1.834c0-1.014,0.82-1.835,1.833-1.835h464.241
		c1.013,0,1.833,0.821,1.833,1.835C751.06,535.583,750.24,536.404,749.227,536.404z"/>
	<g>
		<path fill="#FFFFFF" d="M749.883,92.098H628.815c0,0,8.871-36.389,40.182-36.389c23.2,0,35.242,14.683,39.927,22.293
			C718.075,74.419,737.777,70.072,749.883,92.098"/>
	</g>
	<g>
		<polygon fill="#FBBCA2" points="53.744,267.436 81.062,278.838 82.87,292.437 52.473,283.965 		"/>
		<path fill="#E69A24" d="M128.671,311.403c-0.915,0-1.834-0.093-2.749-0.278l-58.081-11.78l5.499-27.144l43.887,8.897l11.469-73.64
			l27.347,4.266l-13.698,87.962c-0.579,3.735-2.666,7.071-5.766,9.233C134.237,310.55,131.473,311.403,128.671,311.403z"/>
		<g>
			<path fill="#F7AAAC" d="M153.078,603.958c-0.265-1.534,0.864-39.718,0.864-39.718l-20.259,0.193l-1.114,39.744L153.078,603.958z"
				/>
			<path fill="#1E1A1E" d="M98.167,613.019l56.548-0.292l-0.165-17.368l-39.047,0.202
				C105.898,595.591,98.137,603.407,98.167,613.019L98.167,613.019z"/>
		</g>
		<g>
			<path fill="#F7AAAC" d="M318.563,566.119c-1.144-1.055-23.475-32.037-23.475-32.037l-15.955,12.495l23.291,32.21L318.563,566.119
				z"/>
			<path fill="#1E1A1E" d="M280.51,606.761l44.686-34.682L314.5,558.401l-30.856,23.948
				C276.043,588.224,274.64,599.154,280.51,606.761L280.51,606.761z"/>
		</g>
		<g>
			<path fill="#16365E" d="M224.535,305.502l11.527,120.744l-3.348-8.864l77.944,123.713l-31.838,20.92l-82.442-120.757
				c-1.53-2.24-2.53-4.686-3.027-7.188l-0.321-1.678l-24.084-118.95L224.535,305.502z"/>
			<path fill="#16365E" d="M189.267,312.129c-4.156,21.97-7.885,39.004-11.554,61.031c-1.91,11.006-3.542,22.043-5.309,33.066
				l-5.212,33.077l0.146-2.171l-1.615,34.968c-0.509,11.657-1.156,23.312-1.518,34.971c-0.883,23.315-1.706,46.633-2.097,69.957
				l-38.081-0.693c0.455-23.324,0.479-46.656,0.443-69.988c0.061-11.664-0.161-23.335-0.246-35.002l-0.345-35.004l0.019-0.564
				l0.129-1.608l2.676-33.379c0.861-11.128,1.861-22.243,2.579-33.389c1.591-22.274,3.121-39.57,4.226-61.903L189.267,312.129z"/>
			<path fill="#F2A63F" d="M210.395,197.06h-70.629c-6.358,0-11.455,5.262-11.259,11.621l2.717,93.01
				c0.188,6.088,5.173,10.925,11.259,10.925h70.878c6.021,0,10.977-4.738,11.253-10.757l3.713-86.012
				C228.795,205.613,220.631,197.06,210.395,197.06z"/>
			<polygon fill="#FBBCA2" points="161.387,180.16 161.387,203.408 180.488,198.954 177.129,178.222 			"/>
			<g>
				<path fill="#FBBCA2" d="M141.094,154.117l5.166-1.837l2.436,6.816l-4.944,0.856l-3.152-2.224
					C139.24,156.769,139.527,154.675,141.094,154.117z"/>
				<g>
					<defs>
						<path id="SVGID_1_" d="M143.389,164.795c2.057,11.899,13.363,19.877,25.252,17.818c11.89-2.059,19.861-13.373,17.805-25.272
							c-2.057-11.899-13.363-19.877-25.253-17.818C149.304,141.581,141.333,152.896,143.389,164.795z"/>
					</defs>
					<use xlink:href="#SVGID_1_"  overflow="visible" fill="#FBBCA2"/>
					<clipPath id="SVGID_2_">
						<use xlink:href="#SVGID_1_"  overflow="visible"/>
					</clipPath>
					<path clip-path="url(#SVGID_2_)" fill="#0F1534" d="M166.9,133.549c0,0-12.179,36.212,21.466,36.217
						c9.567,0.001,5.473-19.511,5.473-19.511L166.9,133.549z"/>
					<polygon clip-path="url(#SVGID_2_)" fill="#0F1534" points="167.413,150.96 142.449,144.786 145.477,132.525 170.441,138.698 
											"/>
				</g>
				<circle fill="#FBBCA2" cx="174.013" cy="163.358" r="6.119"/>
				<path fill="#0F1534" d="M200.9,154.275c10.933-4.816,15.894-17.589,11.082-28.531s-17.576-15.907-28.509-11.091
					c-10.933,4.816-15.895,17.589-11.082,28.531C177.204,154.125,189.968,159.091,200.9,154.275z"/>
			</g>
			<path fill="#FBBCA2" d="M190.379,197.029l-39.64,0.031c0,0,1.992,14.795,19.932,14.795
				C188.612,211.855,190.379,197.029,190.379,197.029z"/>
		</g>
		<g>
			<g>
				<path fill="#FBBCA2" d="M85.27,262.364c3.733,5.644,11.331,7.19,16.97,3.453c5.639-3.736,7.184-11.34,3.451-16.983
					c-3.733-5.644-11.331-7.19-16.97-3.453C83.081,249.117,81.536,256.72,85.27,262.364z"/>
				<polygon fill="#FBBCA2" points="98.154,248.694 123.066,264.691 122.476,278.397 94.021,264.748 				"/>
			</g>
			<path fill="#F7AAAC" d="M73.538,243.343"/>
			<path fill="#FBBCA2" d="M100.336,253.833c-0.457,0-0.919-0.083-1.372-0.263l-16.618-6.555l-9.172-0.901
				c-2.053-0.2-3.557-2.031-3.353-4.086c0.199-2.055,1.98-3.589,4.082-3.355l9.693,0.95c0.345,0.034,0.681,0.112,1.007,0.243
				l17.104,6.749c1.917,0.755,2.861,2.927,2.102,4.85C103.231,252.937,101.825,253.833,100.336,253.833z"/>
		</g>
		<path fill="#0F1534" d="M90.092,276.722L45.635,233.25c-0.757-0.739-1.79-1.125-2.844-1.06l-30.04,1.844
			c-1.158,0.071-1.681,1.483-0.852,2.292l42.179,41.109c0.92,0.897,2.153,1.402,3.438,1.409l31.635,0.171
			C90.352,279.021,90.952,277.562,90.092,276.722z"/>
		<path fill="#FBBCA2" d="M44.336,280.102c4.66,4.905,12.411,5.101,17.312,0.437c4.901-4.663,5.097-12.42,0.437-17.325
			c-4.66-4.905-12.411-5.101-17.312-0.437C39.872,267.441,39.676,275.197,44.336,280.102z"/>
		<path fill="#F8BE62" d="M196.741,308.364c-1.805,0-3.616-0.356-5.328-1.067l-87.977-26.74l10.657-25.566l72.25,20.175
			l13.616-65.451c1.433-7.514,8.681-12.442,16.188-11.009l0,0c7.509,1.433,12.435,8.688,11.002,16.203l-16.812,82.2
			c-0.783,4.1-3.367,7.626-7.041,9.603C201.256,307.809,199.003,308.364,196.741,308.364z"/>
	</g>
	<g>
		<g>
			<g>
				<linearGradient id="SVGID_3_" gradientUnits="userSpaceOnUse" x1="310.826" y1="271.7249" x2="591.6978" y2="271.7249">
					<stop  offset="0" style="stop-color:#353A64"/>
					<stop  offset="1" style="stop-color:#66328F"/>
				</linearGradient>
				<path fill="url(#SVGID_3_)" d="M555.994,10.714H346.53c-19.719,0-35.704,15.998-35.704,35.732v450.557
					c0,19.734,15.986,35.732,35.704,35.732h209.463c19.719,0,35.705-15.998,35.705-35.732V46.446
					C591.698,26.712,575.713,10.714,555.994,10.714z"/>
				<path fill="#FFFFFF" d="M444.617,512.69c-11.944,0-21.661-9.724-21.661-21.677c0-11.954,9.716-21.678,21.661-21.678
					c11.944,0,21.661,9.724,21.661,21.678C466.278,502.966,456.561,512.69,444.617,512.69z"/>
				<g>
					<path fill="#FFFFFF" d="M477.014,31.491h-49.845c-1.292,0-2.341,1.049-2.341,2.342c0,1.293,1.048,2.343,2.341,2.343h49.845
						c1.292,0,2.341-1.049,2.341-2.343C479.355,32.54,478.306,31.491,477.014,31.491z"/>
					<path fill="#FFFFFF" d="M415.74,36.965c-0.826,0-1.606-0.328-2.199-0.921c-0.142-0.156-0.282-0.313-0.39-0.484
						c-0.11-0.157-0.22-0.345-0.297-0.531c-0.078-0.187-0.125-0.375-0.173-0.578c-0.03-0.203-0.062-0.407-0.062-0.61
						c0-0.218,0.032-0.421,0.062-0.624c0.047-0.188,0.11-0.391,0.188-0.578c0.078-0.188,0.172-0.375,0.282-0.548
						c0.108-0.171,0.249-0.328,0.39-0.468c0.14-0.14,0.296-0.281,0.468-0.391c0.171-0.108,0.358-0.203,0.546-0.281
						c0.187-0.078,0.375-0.14,0.578-0.188c0.405-0.077,0.827-0.077,1.217,0c0.203,0.047,0.405,0.11,0.593,0.188
						s0.358,0.172,0.53,0.281c0.172,0.11,0.328,0.25,0.483,0.391c0.142,0.14,0.267,0.297,0.39,0.468
						c0.11,0.172,0.204,0.36,0.282,0.548c0.078,0.187,0.14,0.39,0.171,0.578c0.047,0.203,0.063,0.405,0.063,0.624
						c0,0.203-0.016,0.407-0.046,0.61c-0.047,0.203-0.11,0.391-0.187,0.578c-0.078,0.186-0.172,0.374-0.282,0.531
						c-0.108,0.171-0.248,0.328-0.39,0.484c-0.156,0.14-0.311,0.282-0.483,0.391c-0.172,0.11-0.343,0.203-0.53,0.282
						c-0.187,0.078-0.39,0.14-0.593,0.186C416.162,36.934,415.942,36.965,415.74,36.965z"/>
				</g>
				<rect x="331.558" y="56.503" fill="#D6E8F7" width="236.389" height="393.086"/>
			</g>
		</g>
		<g>
			<ellipse fill="#FFFFFF" cx="448.527" cy="269.855" rx="68.579" ry="68.633"/>
			<g opacity="0.25">
				<path fill="#1165AE" d="M483.876,246.086L424.39,247.4l-0.411-2.243c-0.14-0.761-0.608-1.421-1.279-1.805l-13.72-7.886
					l-2.627,4.556l12.661,7.282l7.626,41.385c-4.74,2.218-6.785,7.861-4.569,12.605c2.216,4.743,7.855,6.79,12.595,4.572
					c4.739-2.218,6.785-7.861,4.568-12.604c-0.03-0.064-0.06-0.128-0.092-0.191h17.38c-2.321,4.682-0.41,10.36,4.268,12.683
					c4.678,2.323,10.353,0.411,12.674-4.271c2.321-4.682,0.41-10.361-4.268-12.684c-1.308-0.649-2.747-0.987-4.207-0.986h-33.167
					l-1.121-5.993h45.197c1.204-0.005,2.25-0.828,2.539-1.998l8.038-30.441c0.211-0.797,0.036-1.647-0.473-2.296
					C485.491,246.435,484.703,246.065,483.876,246.086z"/>
			</g>
		</g>
		<rect x="331.558" y="56.503" fill="#FFFFFF" width="236.389" height="39.951"/>
		<g>
			<ellipse fill="#F1615B" cx="358.435" cy="75.748" rx="6.988" ry="6.993"/>
			<ellipse fill="#F2A63F" cx="380.72" cy="75.748" rx="6.988" ry="6.993"/>
			<ellipse fill="#4DB748" cx="403.005" cy="75.748" rx="6.988" ry="6.993"/>
		</g>
	</g>
</g>
</svg>
